<?xml version="1.0" encoding="UTF-8" standalone="no"?>
<!DOCTYPE svg PUBLIC "-//W3C//DTD SVG 1.1//EN"
 "http://www.w3.org/Graphics/SVG/1.1/DTD/svg11.dtd">
<!-- Generated by graphviz version 2.38.0 (20140413.2041)
 -->
<!-- Title: AOTYPipeline Pages: 1 -->
<svg width="1158pt" height="2962pt"
 viewBox="0.00 0.00 1158.00 2962.10" xmlns="http://www.w3.org/2000/svg" xmlns:xlink="http://www.w3.org/1999/xlink">
<g id="graph0" class="graph" transform="scale(1 1) rotate(0) translate(36 2926.1)">
<title>AOTYPipeline</title>
<polygon fill="white" stroke="none" points="-36,36 -36,-2926.1 1122,-2926.1 1122,36 -36,36"/>
<text text-anchor="middle" x="543" y="-2866.9" font-family="Arial" font-size="24.00">AOTY Prediction Pipeline</text>
<g id="clust1" class="cluster"><title>cluster_input</title>
<path fill="#f7f7f7" stroke="#333333" stroke-width="2" d="M693,-2722.07C693,-2722.07 875,-2722.07 875,-2722.07 881,-2722.07 887,-2728.07 887,-2734.07 887,-2734.07 887,-2836.1 887,-2836.1 887,-2842.1 881,-2848.1 875,-2848.1 875,-2848.1 693,-2848.1 693,-2848.1 687,-2848.1 681,-2842.1 681,-2836.1 681,-2836.1 681,-2734.07 681,-2734.07 681,-2728.07 687,-2722.07 693,-2722.07"/>
<text text-anchor="middle" x="784" y="-2829.7" font-family="Arial" font-size="18.00" fill="#000000">1. Input</text>
</g>
<g id="clust3" class="cluster"><title>cluster_split</title>
<path fill="#fafafa" stroke="#333333" stroke-width="2" d="M517,-1844.02C517,-1844.02 1051,-1844.02 1051,-1844.02 1057,-1844.02 1063,-1850.02 1063,-1856.02 1063,-1856.02 1063,-2124.05 1063,-2124.05 1063,-2130.05 1057,-2136.05 1051,-2136.05 1051,-2136.05 517,-2136.05 517,-2136.05 511,-2136.05 505,-2130.05 505,-2124.05 505,-2124.05 505,-1856.02 505,-1856.02 505,-1850.02 511,-1844.02 517,-1844.02"/>
<text text-anchor="middle" x="784" y="-2117.65" font-family="Arial" font-size="18.00" fill="#000000">3. Data Splitting</text>
</g>
<g id="clust2" class="cluster"><title>cluster_preprocess</title>
<path fill="#f0f0f0" stroke="#333333" stroke-width="2" d="M688,-2200.05C688,-2200.05 880,-2200.05 880,-2200.05 886,-2200.05 892,-2206.05 892,-2212.05 892,-2212.05 892,-2646.07 892,-2646.07 892,-2652.07 886,-2658.07 880,-2658.07 880,-2658.07 688,-2658.07 688,-2658.07 682,-2658.07 676,-2652.07 676,-2646.07 676,-2646.07 676,-2212.05 676,-2212.05 676,-2206.05 682,-2200.05 688,-2200.05"/>
<text text-anchor="middle" x="784" y="-2639.67" font-family="Arial" font-size="18.00" fill="#000000">2. Preprocessing</text>
</g>
<g id="clust6" class="cluster"><title>cluster_eval</title>
<path fill="#f8f5fa" stroke="#333333" stroke-width="2" d="M390,-198.024C390,-198.024 658,-198.024 658,-198.024 664,-198.024 670,-204.024 670,-210.024 670,-210.024 670,-808.024 670,-808.024 670,-814.024 664,-820.024 658,-820.024 658,-820.024 390,-820.024 390,-820.024 384,-820.024 378,-814.024 378,-808.024 378,-808.024 378,-210.024 378,-210.024 378,-204.024 384,-198.024 390,-198.024"/>
<text text-anchor="middle" x="524" y="-801.624" font-family="Arial" font-size="18.00" fill="#000000">6. Evaluation</text>
</g>
<g id="clust5" class="cluster"><title>cluster_model</title>
<path fill="#fffdf0" stroke="#333333" stroke-width="2" d="M447,-884.024C447,-884.024 599,-884.024 599,-884.024 605,-884.024 611,-890.024 611,-896.024 611,-896.024 611,-1472.02 611,-1472.02 611,-1478.02 605,-1484.02 599,-1484.02 599,-1484.02 447,-1484.02 447,-1484.02 441,-1484.02 435,-1478.02 435,-1472.02 435,-1472.02 435,-896.024 435,-896.024 435,-890.024 441,-884.024 447,-884.024"/>
<text text-anchor="middle" x="523" y="-1465.62" font-family="Arial" font-size="18.00" fill="#000000">5. Bayesian Model</text>
</g>
<g id="clust4" class="cluster"><title>cluster_features</title>
<path fill="#f5f9f5" stroke="#333333" stroke-width="2" d="M20,-1548.02C20,-1548.02 952,-1548.02 952,-1548.02 958,-1548.02 964,-1554.02 964,-1560.02 964,-1560.02 964,-1768.02 964,-1768.02 964,-1774.02 958,-1780.02 952,-1780.02 952,-1780.02 20,-1780.02 20,-1780.02 14,-1780.02 8,-1774.02 8,-1768.02 8,-1768.02 8,-1560.02 8,-1560.02 8,-1554.02 14,-1548.02 20,-1548.02"/>
<text text-anchor="middle" x="486" y="-1761.62" font-family="Arial" font-size="18.00" fill="#000000">4. Feature Engineering</text>
</g>
<g id="clust7" class="cluster"><title>cluster_output</title>
<path fill="#f7f7f7" stroke="#333333" stroke-width="2" d="M467,-8C467,-8 840,-8 840,-8 846,-8 852,-14 852,-20 852,-20 852,-122.024 852,-122.024 852,-128.024 846,-134.024 840,-134.024 840,-134.024 467,-134.024 467,-134.024 461,-134.024 455,-128.024 455,-122.024 455,-122.024 455,-20 455,-20 455,-14 461,-8 467,-8"/>
<text text-anchor="middle" x="653.5" y="-115.624" font-family="Arial" font-size="18.00" fill="#000000">7. Output</text>
</g>
<!-- input_file -->
<g id="node1" class="node"><title>input_file</title>
<ellipse fill="#e8e8e8" stroke="#333333" stroke-width="1.2" cx="784" cy="-2771.09" rx="95.4188" ry="41.0244"/>
<text text-anchor="middle" x="784" y="-2776.29" font-family="Arial" font-size="16.00" fill="#000000">Raw CSV</text>
<text text-anchor="middle" x="784" y="-2758.29" font-family="Arial" font-size="16.00" fill="#000000">130K albums</text>
</g>
<!-- schema_val -->
<g id="node2" class="node"><title>schema_val</title>
<path fill="#ffffff" stroke="#333333" stroke-width="1.2" d="M828.5,-2622.07C828.5,-2622.07 739.5,-2622.07 739.5,-2622.07 733.5,-2622.07 727.5,-2616.07 727.5,-2610.07 727.5,-2610.07 727.5,-2576.07 727.5,-2576.07 727.5,-2570.07 733.5,-2564.07 739.5,-2564.07 739.5,-2564.07 828.5,-2564.07 828.5,-2564.07 834.5,-2564.07 840.5,-2570.07 840.5,-2576.07 840.5,-2576.07 840.5,-2610.07 840.5,-2610.07 840.5,-2616.07 834.5,-2622.07 828.5,-2622.07"/>
<text text-anchor="middle" x="784" y="-2598.27" font-family="Arial" font-size="16.00" fill="#000000">Schema</text>
<text text-anchor="middle" x="784" y="-2580.27" font-family="Arial" font-size="16.00" fill="#000000">Validation</text>
</g>
<!-- input_file&#45;&gt;schema_val -->
<g id="edge9" class="edge"><title>input_file&#45;&gt;schema_val</title>
<path fill="none" stroke="#333333" stroke-width="1.2" d="M784,-2729.7C784,-2699.78 784,-2659.33 784,-2630.41"/>
<polygon fill="#333333" stroke="#333333" stroke-width="1.2" points="786.8,-2630.2 784,-2622.2 781.2,-2630.2 786.8,-2630.2"/>
</g>
<!-- cleaning -->
<g id="node3" class="node"><title>cleaning</title>
<path fill="#ffffff" stroke="#333333" stroke-width="1.2" d="M832,-2456.07C832,-2456.07 736,-2456.07 736,-2456.07 730,-2456.07 724,-2450.07 724,-2444.07 724,-2444.07 724,-2410.07 724,-2410.07 724,-2404.07 730,-2398.07 736,-2398.07 736,-2398.07 832,-2398.07 832,-2398.07 838,-2398.07 844,-2404.07 844,-2410.07 844,-2410.07 844,-2444.07 844,-2444.07 844,-2450.07 838,-2456.07 832,-2456.07"/>
<text text-anchor="middle" x="784" y="-2432.27" font-family="Arial" font-size="16.00" fill="#000000">Cleaning &amp;</text>
<text text-anchor="middle" x="784" y="-2414.27" font-family="Arial" font-size="16.00" fill="#000000">Filtering</text>
</g>
<!-- schema_val&#45;&gt;cleaning -->
<g id="edge1" class="edge"><title>schema_val&#45;&gt;cleaning</title>
<path fill="none" stroke="#333333" stroke-width="1.2" d="M784,-2563.88C784,-2536.34 784,-2494.3 784,-2464.29"/>
<polygon fill="#333333" stroke="#333333" stroke-width="1.2" points="786.8,-2464.17 784,-2456.17 781.2,-2464.17 786.8,-2464.17"/>
</g>
<!-- cleaned_data -->
<g id="node4" class="node"><title>cleaned_data</title>
<ellipse fill="#d4e8d4" stroke="#333333" stroke-width="1.2" cx="784" cy="-2249.06" rx="99.9045" ry="41.0244"/>
<text text-anchor="middle" x="784" y="-2254.26" font-family="Arial" font-size="16.00" fill="#000000">Cleaned Data</text>
<text text-anchor="middle" x="784" y="-2236.26" font-family="Arial" font-size="16.00" fill="#000000">~62K rows</text>
</g>
<!-- cleaning&#45;&gt;cleaned_data -->
<g id="edge2" class="edge"><title>cleaning&#45;&gt;cleaned_data</title>
<path fill="none" stroke="#333333" stroke-width="1.2" d="M784,-2397.79C784,-2371.03 784,-2330.32 784,-2298.41"/>
<polygon fill="#333333" stroke="#333333" stroke-width="1.2" points="786.8,-2298.08 784,-2290.08 781.2,-2298.08 786.8,-2298.08"/>
</g>
<!-- split_strategy -->
<g id="node5" class="node"><title>split_strategy</title>
<path fill="#ffffff" stroke="#333333" stroke-width="1.2" d="M826.5,-2100.05C826.5,-2100.05 741.5,-2100.05 741.5,-2100.05 735.5,-2100.05 729.5,-2094.05 729.5,-2088.05 729.5,-2088.05 729.5,-2054.05 729.5,-2054.05 729.5,-2048.05 735.5,-2042.05 741.5,-2042.05 741.5,-2042.05 826.5,-2042.05 826.5,-2042.05 832.5,-2042.05 838.5,-2048.05 838.5,-2054.05 838.5,-2054.05 838.5,-2088.05 838.5,-2088.05 838.5,-2094.05 832.5,-2100.05 826.5,-2100.05"/>
<text text-anchor="middle" x="784" y="-2076.25" font-family="Arial" font-size="16.00" fill="#000000">Temporal</text>
<text text-anchor="middle" x="784" y="-2058.25" font-family="Arial" font-size="16.00" fill="#000000">Split</text>
</g>
<!-- cleaned_data&#45;&gt;split_strategy -->
<g id="edge10" class="edge"><title>cleaned_data&#45;&gt;split_strategy</title>
<path fill="none" stroke="#333333" stroke-width="1.2" d="M784,-2207.68C784,-2177.75 784,-2137.3 784,-2108.38"/>
<polygon fill="#333333" stroke="#333333" stroke-width="1.2" points="786.8,-2108.18 784,-2100.18 781.2,-2108.18 786.8,-2108.18"/>
</g>
<!-- train_set -->
<g id="node6" class="node"><title>train_set</title>
<ellipse fill="#c8e0c8" stroke="#333333" stroke-width="1.2" cx="575" cy="-1893.04" rx="61.5366" ry="41.0244"/>
<text text-anchor="middle" x="575" y="-1898.24" font-family="Arial" font-size="16.00" fill="#000000">Train</text>
<text text-anchor="middle" x="575" y="-1880.24" font-family="Arial" font-size="16.00" fill="#000000">(64%)</text>
</g>
<!-- split_strategy&#45;&gt;train_set -->
<g id="edge11" class="edge"><title>split_strategy&#45;&gt;train_set</title>
<path fill="none" stroke="#333333" stroke-width="1.2" d="M750.421,-2041.77C714.714,-2011.7 658.09,-1964.01 618.877,-1930.99"/>
<polygon fill="#333333" stroke="#333333" stroke-width="1.2" points="620.661,-1928.83 612.739,-1925.82 617.054,-1933.11 620.661,-1928.83"/>
</g>
<!-- val_set -->
<g id="node7" class="node"><title>val_set</title>
<ellipse fill="#c8d8e8" stroke="#333333" stroke-width="1.2" cx="784" cy="-1893.04" rx="61.5366" ry="41.0244"/>
<text text-anchor="middle" x="784" y="-1898.24" font-family="Arial" font-size="16.00" fill="#000000">Val</text>
<text text-anchor="middle" x="784" y="-1880.24" font-family="Arial" font-size="16.00" fill="#000000">(12%)</text>
</g>
<!-- split_strategy&#45;&gt;val_set -->
<g id="edge12" class="edge"><title>split_strategy&#45;&gt;val_set</title>
<path fill="none" stroke="#333333" stroke-width="1.2" d="M784,-2041.77C784,-2015.01 784,-1974.29 784,-1942.38"/>
<polygon fill="#333333" stroke="#333333" stroke-width="1.2" points="786.8,-1942.05 784,-1934.05 781.2,-1942.05 786.8,-1942.05"/>
</g>
<!-- test_set -->
<g id="node8" class="node"><title>test_set</title>
<ellipse fill="#e0d0e8" stroke="#333333" stroke-width="1.2" cx="993" cy="-1893.04" rx="61.5366" ry="41.0244"/>
<text text-anchor="middle" x="993" y="-1898.24" font-family="Arial" font-size="16.00" fill="#000000">Test</text>
<text text-anchor="middle" x="993" y="-1880.24" font-family="Arial" font-size="16.00" fill="#000000">(12%)</text>
</g>
<!-- split_strategy&#45;&gt;test_set -->
<g id="edge13" class="edge"><title>split_strategy&#45;&gt;test_set</title>
<path fill="none" stroke="#333333" stroke-width="1.2" d="M817.579,-2041.77C853.286,-2011.7 909.91,-1964.01 949.123,-1930.99"/>
<polygon fill="#333333" stroke="#333333" stroke-width="1.2" points="950.946,-1933.11 955.261,-1925.82 947.339,-1928.83 950.946,-1933.11"/>
</g>
<!-- temporal_block -->
<g id="node9" class="node"><title>temporal_block</title>
<path fill="#ffffff" stroke="#333333" stroke-width="1.2" d="M943.5,-1744.02C943.5,-1744.02 858.5,-1744.02 858.5,-1744.02 852.5,-1744.02 846.5,-1738.02 846.5,-1732.02 846.5,-1732.02 846.5,-1716.02 846.5,-1716.02 846.5,-1710.02 852.5,-1704.02 858.5,-1704.02 858.5,-1704.02 943.5,-1704.02 943.5,-1704.02 949.5,-1704.02 955.5,-1710.02 955.5,-1716.02 955.5,-1716.02 955.5,-1732.02 955.5,-1732.02 955.5,-1738.02 949.5,-1744.02 943.5,-1744.02"/>
<text text-anchor="middle" x="901" y="-1720.22" font-family="Arial" font-size="16.00" fill="#000000">Temporal</text>
</g>
<!-- train_set&#45;&gt;temporal_block -->
<g id="edge14" class="edge"><title>train_set&#45;&gt;temporal_block</title>
<path fill="none" stroke="#2e7d32" stroke-width="1.2" d="M623.912,-1868.01C690.906,-1835.09 803,-1780.02 803,-1780.02 803,-1780.02 833.079,-1763.14 859.908,-1748.09"/>
<polygon fill="#2e7d32" stroke="#2e7d32" stroke-width="1.2" points="861.393,-1750.46 866.999,-1744.11 858.653,-1745.58 861.393,-1750.46"/>
</g>
<!-- album_type_block -->
<g id="node10" class="node"><title>album_type_block</title>
<path fill="#ffffff" stroke="#333333" stroke-width="1.2" d="M748.5,-1744.02C748.5,-1744.02 647.5,-1744.02 647.5,-1744.02 641.5,-1744.02 635.5,-1738.02 635.5,-1732.02 635.5,-1732.02 635.5,-1716.02 635.5,-1716.02 635.5,-1710.02 641.5,-1704.02 647.5,-1704.02 647.5,-1704.02 748.5,-1704.02 748.5,-1704.02 754.5,-1704.02 760.5,-1710.02 760.5,-1716.02 760.5,-1716.02 760.5,-1732.02 760.5,-1732.02 760.5,-1738.02 754.5,-1744.02 748.5,-1744.02"/>
<text text-anchor="middle" x="698" y="-1720.22" font-family="Arial" font-size="16.00" fill="#000000">Album Type</text>
</g>
<!-- train_set&#45;&gt;album_type_block -->
<g id="edge15" class="edge"><title>train_set&#45;&gt;album_type_block</title>
<path fill="none" stroke="#2e7d32" stroke-width="1.2" d="M601.689,-1855.8C625.007,-1824.14 658.281,-1778.96 678.987,-1750.84"/>
<polygon fill="#2e7d32" stroke="#2e7d32" stroke-width="1.2" points="681.478,-1752.18 683.967,-1744.08 676.968,-1748.86 681.478,-1752.18"/>
</g>
<!-- artist_history_block -->
<g id="node11" class="node"><title>artist_history_block</title>
<path fill="#ffffff" stroke="#333333" stroke-width="1.2" d="M537.5,-1744.02C537.5,-1744.02 426.5,-1744.02 426.5,-1744.02 420.5,-1744.02 414.5,-1738.02 414.5,-1732.02 414.5,-1732.02 414.5,-1716.02 414.5,-1716.02 414.5,-1710.02 420.5,-1704.02 426.5,-1704.02 426.5,-1704.02 537.5,-1704.02 537.5,-1704.02 543.5,-1704.02 549.5,-1710.02 549.5,-1716.02 549.5,-1716.02 549.5,-1732.02 549.5,-1732.02 549.5,-1738.02 543.5,-1744.02 537.5,-1744.02"/>
<text text-anchor="middle" x="482" y="-1720.22" font-family="Arial" font-size="16.00" fill="#000000">Artist History</text>
</g>
<!-- train_set&#45;&gt;artist_history_block -->
<g id="edge16" class="edge"><title>train_set&#45;&gt;artist_history_block</title>
<path fill="none" stroke="#2e7d32" stroke-width="1.2" d="M553.897,-1854.14C536.383,-1822.69 511.936,-1778.78 496.542,-1751.14"/>
<polygon fill="#2e7d32" stroke="#2e7d32" stroke-width="1.2" points="498.981,-1749.76 492.643,-1744.14 494.089,-1752.49 498.981,-1749.76"/>
</g>
<!-- genre_block -->
<g id="node12" class="node"><title>genre_block</title>
<path fill="#ffffff" stroke="#333333" stroke-width="1.2" d="M316,-1744.02C316,-1744.02 252,-1744.02 252,-1744.02 246,-1744.02 240,-1738.02 240,-1732.02 240,-1732.02 240,-1716.02 240,-1716.02 240,-1710.02 246,-1704.02 252,-1704.02 252,-1704.02 316,-1704.02 316,-1704.02 322,-1704.02 328,-1710.02 328,-1716.02 328,-1716.02 328,-1732.02 328,-1732.02 328,-1738.02 322,-1744.02 316,-1744.02"/>
<text text-anchor="middle" x="284" y="-1720.22" font-family="Arial" font-size="16.00" fill="#000000">Genre</text>
</g>
<!-- train_set&#45;&gt;genre_block -->
<g id="edge17" class="edge"><title>train_set&#45;&gt;genre_block</title>
<path fill="none" stroke="#2e7d32" stroke-width="1.2" d="M528.198,-1866.34C467.971,-1833.27 371,-1780.02 371,-1780.02 371,-1780.02 344.92,-1763.54 321.318,-1748.62"/>
<polygon fill="#2e7d32" stroke="#2e7d32" stroke-width="1.2" points="322.687,-1746.17 314.428,-1744.26 319.694,-1750.9 322.687,-1746.17"/>
</g>
<!-- collab_block -->
<g id="node13" class="node"><title>collab_block</title>
<path fill="#ffffff" stroke="#333333" stroke-width="1.2" d="M141.5,-1744.02C141.5,-1744.02 28.5,-1744.02 28.5,-1744.02 22.5,-1744.02 16.5,-1738.02 16.5,-1732.02 16.5,-1732.02 16.5,-1716.02 16.5,-1716.02 16.5,-1710.02 22.5,-1704.02 28.5,-1704.02 28.5,-1704.02 141.5,-1704.02 141.5,-1704.02 147.5,-1704.02 153.5,-1710.02 153.5,-1716.02 153.5,-1716.02 153.5,-1732.02 153.5,-1732.02 153.5,-1738.02 147.5,-1744.02 141.5,-1744.02"/>
<text text-anchor="middle" x="85" y="-1720.22" font-family="Arial" font-size="16.00" fill="#000000">Collaboration</text>
</g>
<!-- train_set&#45;&gt;collab_block -->
<g id="edge18" class="edge"><title>train_set&#45;&gt;collab_block</title>
<path fill="none" stroke="#2e7d32" stroke-width="1.2" d="M519.225,-1875.51C414.078,-1844.35 197,-1780.02 197,-1780.02 197,-1780.02 162.037,-1762.85 131.18,-1747.7"/>
<polygon fill="#2e7d32" stroke="#2e7d32" stroke-width="1.2" points="132.273,-1745.12 123.858,-1744.11 129.804,-1750.15 132.273,-1745.12"/>
</g>
<!-- predictions -->
<g id="node23" class="node"><title>predictions</title>
<ellipse fill="#d4e8d4" stroke="#333333" stroke-width="1.2" cx="757" cy="-57.0122" rx="86.9483" ry="41.0244"/>
<text text-anchor="middle" x="757" y="-62.2122" font-family="Arial" font-size="16.00" fill="#000000">Predictions</text>
<text text-anchor="middle" x="757" y="-44.2122" font-family="Arial" font-size="16.00" fill="#000000">(95% CI)</text>
</g>
<!-- test_set&#45;&gt;predictions -->
<g id="edge30" class="edge"><title>test_set&#45;&gt;predictions</title>
<path fill="none" stroke="#666666" stroke-width="1.2" stroke-dasharray="5,2" d="M1004.68,-1852.46C1029.66,-1767.85 1086,-1577.02 1086,-1577.02 1086,-1577.02 1086,-1577.02 1086,-391.024 1086,-391.024 887.43,-190.033 798.824,-100.346"/>
<polygon fill="#666666" stroke="#666666" stroke-width="1.2" points="800.764,-98.3261 793.15,-94.6029 796.781,-102.262 800.764,-98.3261"/>
</g>
<!-- feature_pipeline -->
<g id="node14" class="node"><title>feature_pipeline</title>
<path fill="#e8e4d4" stroke="#333333" stroke-width="1.2" d="M582.5,-1596.02C582.5,-1596.02 447.5,-1596.02 447.5,-1596.02 441.5,-1596.02 435.5,-1590.02 435.5,-1584.02 435.5,-1584.02 435.5,-1568.02 435.5,-1568.02 435.5,-1562.02 441.5,-1556.02 447.5,-1556.02 447.5,-1556.02 582.5,-1556.02 582.5,-1556.02 588.5,-1556.02 594.5,-1562.02 594.5,-1568.02 594.5,-1568.02 594.5,-1584.02 594.5,-1584.02 594.5,-1590.02 588.5,-1596.02 582.5,-1596.02"/>
<text text-anchor="middle" x="515" y="-1572.22" font-family="Arial" font-size="16.00" fill="#000000">Feature Pipeline</text>
</g>
<!-- temporal_block&#45;&gt;feature_pipeline -->
<g id="edge19" class="edge"><title>temporal_block&#45;&gt;feature_pipeline</title>
<path fill="none" stroke="#333333" stroke-width="1.2" d="M850.537,-1703.94C779.017,-1676.89 648.494,-1627.52 573.049,-1598.98"/>
<polygon fill="#333333" stroke="#333333" stroke-width="1.2" points="573.948,-1596.33 565.475,-1596.12 571.967,-1601.57 573.948,-1596.33"/>
</g>
<!-- album_type_block&#45;&gt;feature_pipeline -->
<g id="edge20" class="edge"><title>album_type_block&#45;&gt;feature_pipeline</title>
<path fill="none" stroke="#333333" stroke-width="1.2" d="M674.076,-1703.94C641.059,-1677.6 581.519,-1630.09 545.392,-1601.27"/>
<polygon fill="#333333" stroke="#333333" stroke-width="1.2" points="546.93,-1598.92 538.93,-1596.12 543.437,-1603.29 546.93,-1598.92"/>
</g>
<!-- artist_history_block&#45;&gt;feature_pipeline -->
<g id="edge21" class="edge"><title>artist_history_block&#45;&gt;feature_pipeline</title>
<path fill="none" stroke="#333333" stroke-width="1.2" d="M486.314,-1703.94C492.07,-1678.47 502.297,-1633.22 508.857,-1604.2"/>
<polygon fill="#333333" stroke="#333333" stroke-width="1.2" points="511.652,-1604.54 510.685,-1596.12 506.19,-1603.3 511.652,-1604.54"/>
</g>
<!-- genre_block&#45;&gt;feature_pipeline -->
<g id="edge22" class="edge"><title>genre_block&#45;&gt;feature_pipeline</title>
<path fill="none" stroke="#333333" stroke-width="1.2" d="M314.199,-1703.94C356.222,-1677.38 432.283,-1629.3 477.766,-1600.56"/>
<polygon fill="#333333" stroke="#333333" stroke-width="1.2" points="479.527,-1602.76 484.793,-1596.12 476.535,-1598.02 479.527,-1602.76"/>
</g>
<!-- collab_block&#45;&gt;feature_pipeline -->
<g id="edge23" class="edge"><title>collab_block&#45;&gt;feature_pipeline</title>
<path fill="none" stroke="#333333" stroke-width="1.2" d="M141.215,-1703.94C221.129,-1676.8 367.171,-1627.22 451.097,-1598.72"/>
<polygon fill="#333333" stroke="#333333" stroke-width="1.2" points="452.096,-1601.34 458.771,-1596.12 450.296,-1596.04 452.096,-1601.34"/>
</g>
<!-- prior_config -->
<g id="node15" class="node"><title>prior_config</title>
<path fill="#ffffff" stroke="#333333" stroke-width="1.2" d="M576,-1448.02C576,-1448.02 462,-1448.02 462,-1448.02 456,-1448.02 450,-1442.02 450,-1436.02 450,-1436.02 450,-1402.02 450,-1402.02 450,-1396.02 456,-1390.02 462,-1390.02 462,-1390.02 576,-1390.02 576,-1390.02 582,-1390.02 588,-1396.02 588,-1402.02 588,-1402.02 588,-1436.02 588,-1436.02 588,-1442.02 582,-1448.02 576,-1448.02"/>
<text text-anchor="middle" x="519" y="-1424.22" font-family="Arial" font-size="16.00" fill="#000000">Prior</text>
<text text-anchor="middle" x="519" y="-1406.22" font-family="Arial" font-size="16.00" fill="#000000">Configuration</text>
</g>
<!-- feature_pipeline&#45;&gt;prior_config -->
<g id="edge24" class="edge"><title>feature_pipeline&#45;&gt;prior_config</title>
<path fill="none" stroke="#333333" stroke-width="1.2" d="M515.49,-1556.02C516.13,-1531.23 517.262,-1487.36 518.068,-1456.16"/>
<polygon fill="#333333" stroke="#333333" stroke-width="1.2" points="520.868,-1456.19 518.275,-1448.12 515.27,-1456.04 520.868,-1456.19"/>
</g>
<!-- hierarchical -->
<g id="node16" class="node"><title>hierarchical</title>
<path fill="#ffffff" stroke="#333333" stroke-width="1.2" d="M572,-1282.02C572,-1282.02 468,-1282.02 468,-1282.02 462,-1282.02 456,-1276.02 456,-1270.02 456,-1270.02 456,-1236.02 456,-1236.02 456,-1230.02 462,-1224.02 468,-1224.02 468,-1224.02 572,-1224.02 572,-1224.02 578,-1224.02 584,-1230.02 584,-1236.02 584,-1236.02 584,-1270.02 584,-1270.02 584,-1276.02 578,-1282.02 572,-1282.02"/>
<text text-anchor="middle" x="520" y="-1258.22" font-family="Arial" font-size="16.00" fill="#000000">Hierarchical</text>
<text text-anchor="middle" x="520" y="-1240.22" font-family="Arial" font-size="16.00" fill="#000000">Structure</text>
</g>
<!-- prior_config&#45;&gt;hierarchical -->
<g id="edge3" class="edge"><title>prior_config&#45;&gt;hierarchical</title>
<path fill="none" stroke="#333333" stroke-width="1.2" d="M519.172,-1389.83C519.34,-1362.29 519.596,-1320.25 519.779,-1290.24"/>
<polygon fill="#333333" stroke="#333333" stroke-width="1.2" points="522.58,-1290.14 519.829,-1282.12 516.98,-1290.11 522.58,-1290.14"/>
</g>
<!-- time_varying -->
<g id="node17" class="node"><title>time_varying</title>
<path fill="#ffffff" stroke="#333333" stroke-width="1.2" d="M577.5,-1116.02C577.5,-1116.02 466.5,-1116.02 466.5,-1116.02 460.5,-1116.02 454.5,-1110.02 454.5,-1104.02 454.5,-1104.02 454.5,-1070.02 454.5,-1070.02 454.5,-1064.02 460.5,-1058.02 466.5,-1058.02 466.5,-1058.02 577.5,-1058.02 577.5,-1058.02 583.5,-1058.02 589.5,-1064.02 589.5,-1070.02 589.5,-1070.02 589.5,-1104.02 589.5,-1104.02 589.5,-1110.02 583.5,-1116.02 577.5,-1116.02"/>
<text text-anchor="middle" x="522" y="-1092.22" font-family="Arial" font-size="16.00" fill="#000000">Time&#45;varying</text>
<text text-anchor="middle" x="522" y="-1074.22" font-family="Arial" font-size="16.00" fill="#000000">Effects</text>
</g>
<!-- hierarchical&#45;&gt;time_varying -->
<g id="edge4" class="edge"><title>hierarchical&#45;&gt;time_varying</title>
<path fill="none" stroke="#333333" stroke-width="1.2" d="M520.344,-1223.83C520.68,-1196.29 521.192,-1154.25 521.558,-1124.24"/>
<polygon fill="#333333" stroke="#333333" stroke-width="1.2" points="524.359,-1124.16 521.657,-1116.12 518.76,-1124.09 524.359,-1124.16"/>
</g>
<!-- mcmc_sampling -->
<g id="node18" class="node"><title>mcmc_sampling</title>
<path fill="#b8d4e8" stroke="#333333" stroke-width="2" d="M591,-950.024C591,-950.024 455,-950.024 455,-950.024 449,-950.024 443,-944.024 443,-938.024 443,-938.024 443,-904.024 443,-904.024 443,-898.024 449,-892.024 455,-892.024 455,-892.024 591,-892.024 591,-892.024 597,-892.024 603,-898.024 603,-904.024 603,-904.024 603,-938.024 603,-938.024 603,-944.024 597,-950.024 591,-950.024"/>
<text text-anchor="middle" x="523" y="-926.224" font-family="Arial" font-size="16.00" fill="#000000">MCMC Sampling</text>
<text text-anchor="middle" x="523" y="-908.224" font-family="Arial" font-size="16.00" fill="#000000">(NUTS/GPU)</text>
</g>
<!-- time_varying&#45;&gt;mcmc_sampling -->
<g id="edge5" class="edge"><title>time_varying&#45;&gt;mcmc_sampling</title>
<path fill="none" stroke="#333333" stroke-width="1.2" d="M522.172,-1057.83C522.34,-1030.29 522.596,-988.251 522.779,-958.245"/>
<polygon fill="#333333" stroke="#333333" stroke-width="1.2" points="525.58,-958.14 522.829,-950.123 519.98,-958.106 525.58,-958.14"/>
</g>
<!-- convergence -->
<g id="node19" class="node"><title>convergence</title>
<path fill="#ffe4b5" stroke="#333333" stroke-width="1.2" d="M512.937,-779.375C512.937,-779.375 397.063,-730.674 397.063,-730.674 391.531,-728.349 391.531,-723.7 397.063,-721.375 397.063,-721.375 512.937,-672.674 512.937,-672.674 518.469,-670.349 529.531,-670.349 535.063,-672.674 535.063,-672.674 650.937,-721.375 650.937,-721.375 656.469,-723.7 656.469,-728.349 650.937,-730.674 650.937,-730.674 535.063,-779.375 535.063,-779.375 529.531,-781.7 518.469,-781.7 512.937,-779.375"/>
<text text-anchor="middle" x="524" y="-731.224" font-family="Arial" font-size="16.00" fill="#000000">Convergence</text>
<text text-anchor="middle" x="524" y="-713.224" font-family="Arial" font-size="16.00" fill="#000000">Checks</text>
</g>
<!-- mcmc_sampling&#45;&gt;convergence -->
<g id="edge25" class="edge"><title>mcmc_sampling&#45;&gt;convergence</title>
<path fill="none" stroke="#333333" stroke-width="1.2" d="M499.6,-891.961C490.505,-862.802 488.865,-816.468 494.538,-780.323"/>
<polygon fill="#333333" stroke="#333333" stroke-width="1.2" points="497.319,-780.673 495.95,-772.309 491.804,-779.701 497.319,-780.673"/>
</g>
<!-- convergence&#45;&gt;mcmc_sampling -->
<g id="edge28" class="edge"><title>convergence&#45;&gt;mcmc_sampling</title>
<path fill="none" stroke="#666666" stroke-width="1.2" stroke-dasharray="5,2" d="M551.65,-772.68C557.916,-806.665 556.988,-852.428 549.001,-883.888"/>
<polygon fill="#666666" stroke="#666666" stroke-width="1.2" points="546.2,-883.499 546.691,-891.961 551.584,-885.04 546.2,-883.499"/>
<text text-anchor="middle" x="542.325" y="-830.684" font-family="Arial" font-size="7.00" fill="#000000">retry</text>
</g>
<!-- loo_cv -->
<g id="node20" class="node"><title>loo_cv</title>
<path fill="#ffffff" stroke="#333333" stroke-width="1.2" d="M564,-560.024C564,-560.024 484,-560.024 484,-560.024 478,-560.024 472,-554.024 472,-548.024 472,-548.024 472,-532.024 472,-532.024 472,-526.024 478,-520.024 484,-520.024 484,-520.024 564,-520.024 564,-520.024 570,-520.024 576,-526.024 576,-532.024 576,-532.024 576,-548.024 576,-548.024 576,-554.024 570,-560.024 564,-560.024"/>
<text text-anchor="middle" x="524" y="-536.224" font-family="Arial" font-size="16.00" fill="#000000">LOO&#45;CV</text>
</g>
<!-- convergence&#45;&gt;loo_cv -->
<g id="edge6" class="edge"><title>convergence&#45;&gt;loo_cv</title>
<path fill="none" stroke="#333333" stroke-width="1.2" d="M524,-667.814C524,-634.83 524,-594.85 524,-568.718"/>
<polygon fill="#333333" stroke="#333333" stroke-width="1.2" points="526.8,-568.417 524,-560.417 521.2,-568.417 526.8,-568.417"/>
</g>
<!-- convergence&#45;&gt;predictions -->
<g id="edge26" class="edge"><title>convergence&#45;&gt;predictions</title>
<path fill="none" stroke="#333333" stroke-width="1.2" d="M550.463,-679.063C578.573,-630.241 619,-560.024 619,-560.024 619,-560.024 709.403,-231.16 743.868,-105.782"/>
<polygon fill="#333333" stroke="#333333" stroke-width="1.2" points="746.635,-106.28 746.056,-97.8239 741.236,-104.796 746.635,-106.28"/>
</g>
<!-- calibration -->
<g id="node21" class="node"><title>calibration</title>
<path fill="#ffffff" stroke="#333333" stroke-width="1.2" d="M572,-412.024C572,-412.024 476,-412.024 476,-412.024 470,-412.024 464,-406.024 464,-400.024 464,-400.024 464,-384.024 464,-384.024 464,-378.024 470,-372.024 476,-372.024 476,-372.024 572,-372.024 572,-372.024 578,-372.024 584,-378.024 584,-384.024 584,-384.024 584,-400.024 584,-400.024 584,-406.024 578,-412.024 572,-412.024"/>
<text text-anchor="middle" x="524" y="-388.224" font-family="Arial" font-size="16.00" fill="#000000">Calibration</text>
</g>
<!-- loo_cv&#45;&gt;calibration -->
<g id="edge7" class="edge"><title>loo_cv&#45;&gt;calibration</title>
<path fill="none" stroke="#333333" stroke-width="1.2" d="M524,-519.937C524,-494.471 524,-449.225 524,-420.202"/>
<polygon fill="#333333" stroke="#333333" stroke-width="1.2" points="526.8,-420.116 524,-412.116 521.2,-420.116 526.8,-420.116"/>
</g>
<!-- sensitivity -->
<g id="node22" class="node"><title>sensitivity</title>
<path fill="#ffffff" stroke="#333333" stroke-width="1.2" d="M570.5,-264.024C570.5,-264.024 477.5,-264.024 477.5,-264.024 471.5,-264.024 465.5,-258.024 465.5,-252.024 465.5,-252.024 465.5,-218.024 465.5,-218.024 465.5,-212.024 471.5,-206.024 477.5,-206.024 477.5,-206.024 570.5,-206.024 570.5,-206.024 576.5,-206.024 582.5,-212.024 582.5,-218.024 582.5,-218.024 582.5,-252.024 582.5,-252.024 582.5,-258.024 576.5,-264.024 570.5,-264.024"/>
<text text-anchor="middle" x="524" y="-240.224" font-family="Arial" font-size="16.00" fill="#000000">Sensitivity</text>
<text text-anchor="middle" x="524" y="-222.224" font-family="Arial" font-size="16.00" fill="#000000">Analysis</text>
</g>
<!-- calibration&#45;&gt;sensitivity -->
<g id="edge8" class="edge"><title>calibration&#45;&gt;sensitivity</title>
<path fill="none" stroke="#333333" stroke-width="1.2" d="M524,-372.018C524,-347.233 524,-303.365 524,-272.157"/>
<polygon fill="#333333" stroke="#333333" stroke-width="1.2" points="526.8,-272.116 524,-264.116 521.2,-272.116 526.8,-272.116"/>
</g>
<!-- sensitivity&#45;&gt;prior_config -->
<g id="edge29" class="edge"><title>sensitivity&#45;&gt;prior_config</title>
<path fill="none" stroke="#666666" stroke-width="1.2" stroke-dasharray="5,2" d="M545.342,-264.204C575.511,-304.039 627,-372.024 627,-372.024 627,-372.024 705,-668.024 705,-668.024 705,-668.024 705,-820.024 705,-820.024 705,-820.024 627,-1282.02 627,-1282.02 627,-1282.02 578.356,-1343.28 546.36,-1383.57"/>
<polygon fill="#666666" stroke="#666666" stroke-width="1.2" points="544.16,-1381.84 541.378,-1389.85 548.545,-1385.32 544.16,-1381.84"/>
<text text-anchor="middle" x="697.596" y="-824.816" font-family="Arial" font-size="7.00" fill="#000000">tune</text>
</g>
<!-- publication -->
<g id="node24" class="node"><title>publication</title>
<path fill="#ffffff" stroke="#333333" stroke-width="1.2" d="M572.5,-86.0122C572.5,-86.0122 475.5,-86.0122 475.5,-86.0122 469.5,-86.0122 463.5,-80.0122 463.5,-74.0122 463.5,-74.0122 463.5,-40.0122 463.5,-40.0122 463.5,-34.0122 469.5,-28.0122 475.5,-28.0122 475.5,-28.0122 572.5,-28.0122 572.5,-28.0122 578.5,-28.0122 584.5,-34.0122 584.5,-40.0122 584.5,-40.0122 584.5,-74.0122 584.5,-74.0122 584.5,-80.0122 578.5,-86.0122 572.5,-86.0122"/>
<text text-anchor="middle" x="524" y="-62.2122" font-family="Arial" font-size="16.00" fill="#000000">Publication</text>
<text text-anchor="middle" x="524" y="-44.2122" font-family="Arial" font-size="16.00" fill="#000000">Artifacts</text>
</g>
<!-- sensitivity&#45;&gt;publication -->
<g id="edge27" class="edge"><title>sensitivity&#45;&gt;publication</title>
<path fill="none" stroke="#333333" stroke-width="1.2" d="M524,-205.745C524,-175.465 524,-127.325 524,-94.2779"/>
<polygon fill="#333333" stroke="#333333" stroke-width="1.2" points="526.8,-94.2214 524,-86.2214 521.2,-94.2215 526.8,-94.2214"/>
</g>
</g>
</svg>
