<?xml version="1.0" encoding="UTF-8" standalone="no"?>
<!DOCTYPE svg PUBLIC "-//W3C//DTD SVG 1.1//EN"
 "http://www.w3.org/Graphics/SVG/1.1/DTD/svg11.dtd">
<!-- Generated by graphviz version 2.38.0 (20140413.2041)
 -->
<!-- Title: AOTYPipeline Pages: 1 -->
<svg width="1246pt" height="3382pt"
 viewBox="0.00 0.00 1246.00 3382.20" xmlns="http://www.w3.org/2000/svg" xmlns:xlink="http://www.w3.org/1999/xlink">
<g id="graph0" class="graph" transform="scale(1 1) rotate(0) translate(36 3346.2)">
<title>AOTYPipeline</title>
<polygon fill="#ffffff" stroke="none" points="-36,36 -36,-3346.2 1210,-3346.2 1210,36 -36,36"/>
<text text-anchor="middle" x="587" y="-3288.6" font-family="Arial" font-size="22.00">AOTY Prediction Pipeline: Technical Reference</text>
<g id="clust1" class="cluster"><title>cluster_input</title>
<path fill="#f7f7f7" stroke="#333333" stroke-width="2" d="M693,-3160.32C693,-3160.32 847,-3160.32 847,-3160.32 853,-3160.32 859,-3166.32 859,-3172.32 859,-3172.32 859,-3258.2 859,-3258.2 859,-3264.2 853,-3270.2 847,-3270.2 847,-3270.2 693,-3270.2 693,-3270.2 687,-3270.2 681,-3264.2 681,-3258.2 681,-3258.2 681,-3172.32 681,-3172.32 681,-3166.32 687,-3160.32 693,-3160.32"/>
<text text-anchor="middle" x="770" y="-3253.4" font-family="Arial" font-size="16.00" fill="#000000">1. Input</text>
</g>
<g id="clust3" class="cluster"><title>cluster_split</title>
<path fill="#fafafa" stroke="#333333" stroke-width="2" d="M570,-2203.76C570,-2203.76 1154,-2203.76 1154,-2203.76 1160,-2203.76 1166,-2209.76 1166,-2215.76 1166,-2215.76 1166,-2414.43 1166,-2414.43 1166,-2420.43 1160,-2426.43 1154,-2426.43 1154,-2426.43 570,-2426.43 570,-2426.43 564,-2426.43 558,-2420.43 558,-2414.43 558,-2414.43 558,-2215.76 558,-2215.76 558,-2209.76 564,-2203.76 570,-2203.76"/>
<text text-anchor="middle" x="862" y="-2409.63" font-family="Arial" font-size="16.00" fill="#000000">3. Data Splitting</text>
</g>
<g id="clust2" class="cluster"><title>cluster_preprocess</title>
<path fill="#f0f0f0" stroke="#333333" stroke-width="2" d="M687,-2470.43C687,-2470.43 853,-2470.43 853,-2470.43 859,-2470.43 865,-2476.43 865,-2482.43 865,-2482.43 865,-3104.32 865,-3104.32 865,-3110.32 859,-3116.32 853,-3116.32 853,-3116.32 687,-3116.32 687,-3116.32 681,-3116.32 675,-3110.32 675,-3104.32 675,-3104.32 675,-2482.43 675,-2482.43 675,-2476.43 681,-2470.43 687,-2470.43"/>
<text text-anchor="middle" x="770" y="-3099.52" font-family="Arial" font-size="16.00" fill="#000000">2. Preprocessing</text>
</g>
<g id="clust4" class="cluster"><title>cluster_features</title>
<path fill="#f5f9f5" stroke="#333333" stroke-width="2" d="M20,-1947.76C20,-1947.76 1048,-1947.76 1048,-1947.76 1054,-1947.76 1060,-1953.76 1060,-1959.76 1060,-1959.76 1060,-2147.76 1060,-2147.76 1060,-2153.76 1054,-2159.76 1048,-2159.76 1048,-2159.76 20,-2159.76 20,-2159.76 14,-2159.76 8,-2153.76 8,-2147.76 8,-2147.76 8,-1959.76 8,-1959.76 8,-1953.76 14,-1947.76 20,-1947.76"/>
<text text-anchor="middle" x="534" y="-2142.96" font-family="Arial" font-size="16.00" fill="#000000">4. Feature Engineering (fit on train)</text>
</g>
<g id="clust5" class="cluster"><title>cluster_model</title>
<path fill="#fffdf0" stroke="#333333" stroke-width="2" d="M559,-989.882C559,-989.882 723,-989.882 723,-989.882 729,-989.882 735,-995.882 735,-1001.88 735,-1001.88 735,-1891.76 735,-1891.76 735,-1897.76 729,-1903.76 723,-1903.76 723,-1903.76 559,-1903.76 559,-1903.76 553,-1903.76 547,-1897.76 547,-1891.76 547,-1891.76 547,-1001.88 547,-1001.88 547,-995.882 553,-989.882 559,-989.882"/>
<text text-anchor="middle" x="641" y="-1886.96" font-family="Arial" font-size="16.00" fill="#000000">5. Bayesian Model</text>
</g>
<g id="clust6" class="cluster"><title>cluster_eval</title>
<path fill="#f8f5fa" stroke="#333333" stroke-width="2" d="M520,-161.882C520,-161.882 756,-161.882 756,-161.882 762,-161.882 768,-167.882 768,-173.882 768,-173.882 768,-933.882 768,-933.882 768,-939.882 762,-945.882 756,-945.882 756,-945.882 520,-945.882 520,-945.882 514,-945.882 508,-939.882 508,-933.882 508,-933.882 508,-173.882 508,-173.882 508,-167.882 514,-161.882 520,-161.882"/>
<text text-anchor="middle" x="638" y="-929.082" font-family="Arial" font-size="16.00" fill="#000000">6. Evaluation</text>
</g>
<g id="clust7" class="cluster"><title>cluster_output</title>
<path fill="#f7f7f7" stroke="#333333" stroke-width="2" d="M651,-8C651,-8 1133,-8 1133,-8 1139,-8 1145,-14 1145,-20 1145,-20 1145,-105.882 1145,-105.882 1145,-111.882 1139,-117.882 1133,-117.882 1133,-117.882 651,-117.882 651,-117.882 645,-117.882 639,-111.882 639,-105.882 639,-105.882 639,-20 639,-20 639,-14 645,-8 651,-8"/>
<text text-anchor="middle" x="892" y="-101.082" font-family="Arial" font-size="16.00" fill="#000000">7. Output</text>
</g>
<!-- input_file -->
<g id="node1" class="node"><title>input_file</title>
<ellipse fill="#e8e8e8" stroke="#333333" stroke-width="1.2" cx="770" cy="-3202.26" rx="80.7205" ry="33.8824"/>
<text text-anchor="middle" x="770" y="-3206.06" font-family="Arial" font-size="14.00" fill="#000000">Raw CSV</text>
<text text-anchor="middle" x="770" y="-3191.06" font-family="Arial" font-size="14.00" fill="#000000">(130K rows)</text>
</g>
<!-- schema_val -->
<g id="node2" class="node"><title>schema_val</title>
<path fill="#ffffff" stroke="#333333" stroke-width="1.2" d="M807,-3082.32C807,-3082.32 733,-3082.32 733,-3082.32 727,-3082.32 721,-3076.32 721,-3070.32 721,-3070.32 721,-3046.32 721,-3046.32 721,-3040.32 727,-3034.32 733,-3034.32 733,-3034.32 807,-3034.32 807,-3034.32 813,-3034.32 819,-3040.32 819,-3046.32 819,-3046.32 819,-3070.32 819,-3070.32 819,-3076.32 813,-3082.32 807,-3082.32"/>
<text text-anchor="middle" x="770" y="-3062.12" font-family="Arial" font-size="14.00" fill="#000000">Schema</text>
<text text-anchor="middle" x="770" y="-3047.12" font-family="Arial" font-size="14.00" fill="#000000">Validation</text>
</g>
<!-- input_file&#45;&gt;schema_val -->
<g id="edge18" class="edge"><title>input_file&#45;&gt;schema_val</title>
<path fill="none" stroke="#333333" stroke-width="1.2" d="M770,-3167.98C770,-3144.63 770,-3113.6 770,-3090.68"/>
<polygon fill="#333333" stroke="#333333" stroke-width="1.2" points="772.8,-3090.64 770,-3082.64 767.2,-3090.64 772.8,-3090.64"/>
</g>
<!-- null_handling -->
<g id="node3" class="node"><title>null_handling</title>
<path fill="#ffffff" stroke="#333333" stroke-width="1.2" d="M803.5,-2948.32C803.5,-2948.32 736.5,-2948.32 736.5,-2948.32 730.5,-2948.32 724.5,-2942.32 724.5,-2936.32 724.5,-2936.32 724.5,-2912.32 724.5,-2912.32 724.5,-2906.32 730.5,-2900.32 736.5,-2900.32 736.5,-2900.32 803.5,-2900.32 803.5,-2900.32 809.5,-2900.32 815.5,-2906.32 815.5,-2912.32 815.5,-2912.32 815.5,-2936.32 815.5,-2936.32 815.5,-2942.32 809.5,-2948.32 803.5,-2948.32"/>
<text text-anchor="middle" x="770" y="-2928.12" font-family="Arial" font-size="14.00" fill="#000000">Null</text>
<text text-anchor="middle" x="770" y="-2913.12" font-family="Arial" font-size="14.00" fill="#000000">Handling</text>
</g>
<!-- schema_val&#45;&gt;null_handling -->
<g id="edge1" class="edge"><title>schema_val&#45;&gt;null_handling</title>
<path fill="none" stroke="#333333" stroke-width="1.2" d="M770,-3034.02C770,-3012.44 770,-2980.18 770,-2956.4"/>
<polygon fill="#333333" stroke="#333333" stroke-width="1.2" points="772.8,-2956.38 770,-2948.38 767.2,-2956.38 772.8,-2956.38"/>
</g>
<!-- date_parsing -->
<g id="node4" class="node"><title>date_parsing</title>
<path fill="#ffffff" stroke="#333333" stroke-width="1.2" d="M800.5,-2814.32C800.5,-2814.32 739.5,-2814.32 739.5,-2814.32 733.5,-2814.32 727.5,-2808.32 727.5,-2802.32 727.5,-2802.32 727.5,-2778.32 727.5,-2778.32 727.5,-2772.32 733.5,-2766.32 739.5,-2766.32 739.5,-2766.32 800.5,-2766.32 800.5,-2766.32 806.5,-2766.32 812.5,-2772.32 812.5,-2778.32 812.5,-2778.32 812.5,-2802.32 812.5,-2802.32 812.5,-2808.32 806.5,-2814.32 800.5,-2814.32"/>
<text text-anchor="middle" x="770" y="-2794.12" font-family="Arial" font-size="14.00" fill="#000000">Date</text>
<text text-anchor="middle" x="770" y="-2779.12" font-family="Arial" font-size="14.00" fill="#000000">Parsing</text>
</g>
<!-- null_handling&#45;&gt;date_parsing -->
<g id="edge2" class="edge"><title>null_handling&#45;&gt;date_parsing</title>
<path fill="none" stroke="#333333" stroke-width="1.2" d="M770,-2900.02C770,-2878.44 770,-2846.18 770,-2822.4"/>
<polygon fill="#333333" stroke="#333333" stroke-width="1.2" points="772.8,-2822.38 770,-2814.38 767.2,-2822.38 772.8,-2822.38"/>
</g>
<!-- min_ratings -->
<g id="node5" class="node"><title>min_ratings</title>
<path fill="#ffffff" stroke="#333333" stroke-width="1.2" d="M813,-2680.32C813,-2680.32 727,-2680.32 727,-2680.32 721,-2680.32 715,-2674.32 715,-2668.32 715,-2668.32 715,-2644.32 715,-2644.32 715,-2638.32 721,-2632.32 727,-2632.32 727,-2632.32 813,-2632.32 813,-2632.32 819,-2632.32 825,-2638.32 825,-2644.32 825,-2644.32 825,-2668.32 825,-2668.32 825,-2674.32 819,-2680.32 813,-2680.32"/>
<text text-anchor="middle" x="770" y="-2660.12" font-family="Arial" font-size="14.00" fill="#000000">Min Ratings</text>
<text text-anchor="middle" x="770" y="-2645.12" font-family="Arial" font-size="14.00" fill="#000000">Filter</text>
</g>
<!-- date_parsing&#45;&gt;min_ratings -->
<g id="edge3" class="edge"><title>date_parsing&#45;&gt;min_ratings</title>
<path fill="none" stroke="#333333" stroke-width="1.2" d="M770,-2766.02C770,-2744.44 770,-2712.18 770,-2688.4"/>
<polygon fill="#333333" stroke="#333333" stroke-width="1.2" points="772.8,-2688.38 770,-2680.38 767.2,-2688.38 772.8,-2688.38"/>
</g>
<!-- cleaned_data -->
<g id="node6" class="node"><title>cleaned_data</title>
<ellipse fill="#d4e8d4" stroke="#333333" stroke-width="1.2" cx="770" cy="-2512.37" rx="86.9483" ry="33.8824"/>
<text text-anchor="middle" x="770" y="-2516.17" font-family="Arial" font-size="14.00" fill="#000000">Cleaned Data</text>
<text text-anchor="middle" x="770" y="-2501.17" font-family="Arial" font-size="14.00" fill="#000000">(62K rows)</text>
</g>
<!-- min_ratings&#45;&gt;cleaned_data -->
<g id="edge4" class="edge"><title>min_ratings&#45;&gt;cleaned_data</title>
<path fill="none" stroke="#333333" stroke-width="1.2" d="M770,-2632.19C770,-2611.3 770,-2580.06 770,-2554.85"/>
<polygon fill="#333333" stroke="#333333" stroke-width="1.2" points="772.8,-2554.56 770,-2546.56 767.2,-2554.56 772.8,-2554.56"/>
</g>
<!-- within_artist -->
<g id="node7" class="node"><title>within_artist</title>
<path fill="#ffffff" stroke="#333333" stroke-width="1.2" d="M908,-2392.43C908,-2392.43 820,-2392.43 820,-2392.43 814,-2392.43 808,-2386.43 808,-2380.43 808,-2380.43 808,-2356.43 808,-2356.43 808,-2350.43 814,-2344.43 820,-2344.43 820,-2344.43 908,-2344.43 908,-2344.43 914,-2344.43 920,-2350.43 920,-2356.43 920,-2356.43 920,-2380.43 920,-2380.43 920,-2386.43 914,-2392.43 908,-2392.43"/>
<text text-anchor="middle" x="864" y="-2372.23" font-family="Arial" font-size="14.00" fill="#000000">Within&#45;Artist</text>
<text text-anchor="middle" x="864" y="-2357.23" font-family="Arial" font-size="14.00" fill="#000000">(temporal)</text>
</g>
<!-- cleaned_data&#45;&gt;within_artist -->
<g id="edge19" class="edge"><title>cleaned_data&#45;&gt;within_artist</title>
<path fill="none" stroke="#333333" stroke-width="1.2" d="M791.33,-2479.17C807.137,-2455.3 828.532,-2422.99 844.01,-2399.62"/>
<polygon fill="#333333" stroke="#333333" stroke-width="1.2" points="846.528,-2400.89 848.611,-2392.67 841.859,-2397.8 846.528,-2400.89"/>
</g>
<!-- artist_disjoint -->
<g id="node8" class="node"><title>artist_disjoint</title>
<path fill="#ffffff" stroke="#333333" stroke-width="1.2" d="M724,-2392.43C724,-2392.43 628,-2392.43 628,-2392.43 622,-2392.43 616,-2386.43 616,-2380.43 616,-2380.43 616,-2356.43 616,-2356.43 616,-2350.43 622,-2344.43 628,-2344.43 628,-2344.43 724,-2344.43 724,-2344.43 730,-2344.43 736,-2350.43 736,-2356.43 736,-2356.43 736,-2380.43 736,-2380.43 736,-2386.43 730,-2392.43 724,-2392.43"/>
<text text-anchor="middle" x="676" y="-2372.23" font-family="Arial" font-size="14.00" fill="#000000">Artist&#45;Disjoint</text>
<text text-anchor="middle" x="676" y="-2357.23" font-family="Arial" font-size="14.00" fill="#000000">(holdout)</text>
</g>
<!-- cleaned_data&#45;&gt;artist_disjoint -->
<g id="edge20" class="edge"><title>cleaned_data&#45;&gt;artist_disjoint</title>
<path fill="none" stroke="#333333" stroke-width="1.2" d="M748.67,-2479.17C732.863,-2455.3 711.468,-2422.99 695.99,-2399.62"/>
<polygon fill="#333333" stroke="#333333" stroke-width="1.2" points="698.141,-2397.8 691.389,-2392.67 693.472,-2400.89 698.141,-2397.8"/>
</g>
<!-- train_set -->
<g id="node9" class="node"><title>train_set</title>
<ellipse fill="#c8e0c8" stroke="#333333" stroke-width="1.2" cx="644" cy="-2235.1" rx="77.5641" ry="23.1702"/>
<text text-anchor="middle" x="644" y="-2231.4" font-family="Arial" font-size="14.00" fill="#000000">Train (64%)</text>
</g>
<!-- within_artist&#45;&gt;train_set -->
<g id="edge21" class="edge"><title>within_artist&#45;&gt;train_set</title>
<path fill="none" stroke="#333333" stroke-width="1.2" d="M825.427,-2344.41C786.099,-2320.93 725.31,-2284.64 685.094,-2260.63"/>
<polygon fill="#333333" stroke="#333333" stroke-width="1.2" points="686.139,-2257.99 677.834,-2256.3 683.268,-2262.8 686.139,-2257.99"/>
</g>
<!-- val_set -->
<g id="node10" class="node"><title>val_set</title>
<ellipse fill="#c8d8e8" stroke="#333333" stroke-width="1.2" cx="864" cy="-2235.1" rx="70.0071" ry="23.1702"/>
<text text-anchor="middle" x="864" y="-2231.4" font-family="Arial" font-size="14.00" fill="#000000">Val (12%)</text>
</g>
<!-- within_artist&#45;&gt;val_set -->
<g id="edge22" class="edge"><title>within_artist&#45;&gt;val_set</title>
<path fill="none" stroke="#333333" stroke-width="1.2" d="M864,-2344.26C864,-2322.74 864,-2290.57 864,-2266.9"/>
<polygon fill="#333333" stroke="#333333" stroke-width="1.2" points="866.8,-2266.61 864,-2258.61 861.2,-2266.61 866.8,-2266.61"/>
</g>
<!-- test_set -->
<g id="node11" class="node"><title>test_set</title>
<ellipse fill="#e0d0e8" stroke="#333333" stroke-width="1.2" cx="1082" cy="-2235.1" rx="75.8212" ry="23.1702"/>
<text text-anchor="middle" x="1082" y="-2231.4" font-family="Arial" font-size="14.00" fill="#000000">Test (12%)</text>
</g>
<!-- within_artist&#45;&gt;test_set -->
<g id="edge23" class="edge"><title>within_artist&#45;&gt;test_set</title>
<path fill="none" stroke="#333333" stroke-width="1.2" d="M902.222,-2344.41C941.308,-2320.86 1001.78,-2284.43 1041.63,-2260.42"/>
<polygon fill="#333333" stroke="#333333" stroke-width="1.2" points="1043.41,-2262.61 1048.82,-2256.09 1040.52,-2257.82 1043.41,-2262.61"/>
</g>
<!-- temporal_block -->
<g id="node12" class="node"><title>temporal_block</title>
<path fill="#ffffff" stroke="#333333" stroke-width="1.2" d="M330,-2125.76C330,-2125.76 214,-2125.76 214,-2125.76 208,-2125.76 202,-2119.76 202,-2113.76 202,-2113.76 202,-2089.76 202,-2089.76 202,-2083.76 208,-2077.76 214,-2077.76 214,-2077.76 330,-2077.76 330,-2077.76 336,-2077.76 342,-2083.76 342,-2089.76 342,-2089.76 342,-2113.76 342,-2113.76 342,-2119.76 336,-2125.76 330,-2125.76"/>
<text text-anchor="middle" x="272" y="-2105.56" font-family="Arial" font-size="14.00" fill="#000000">Temporal</text>
<text text-anchor="middle" x="272" y="-2090.56" font-family="Arial" font-size="14.00" fill="#000000">(sequence, gap)</text>
</g>
<!-- train_set&#45;&gt;temporal_block -->
<g id="edge24" class="edge"><title>train_set&#45;&gt;temporal_block</title>
<path fill="none" stroke="#2e7d32" stroke-width="1.2" d="M588.561,-2218.61C510.605,-2196.82 378,-2159.76 378,-2159.76 378,-2159.76 349.541,-2144.46 322.115,-2129.71"/>
<polygon fill="#2e7d32" stroke="#2e7d32" stroke-width="1.2" points="323.181,-2127.11 314.809,-2125.78 320.529,-2132.04 323.181,-2127.11"/>
</g>
<!-- album_type_block -->
<g id="node13" class="node"><title>album_type_block</title>
<path fill="#ffffff" stroke="#333333" stroke-width="1.2" d="M117.5,-2125.76C117.5,-2125.76 28.5,-2125.76 28.5,-2125.76 22.5,-2125.76 16.5,-2119.76 16.5,-2113.76 16.5,-2113.76 16.5,-2089.76 16.5,-2089.76 16.5,-2083.76 22.5,-2077.76 28.5,-2077.76 28.5,-2077.76 117.5,-2077.76 117.5,-2077.76 123.5,-2077.76 129.5,-2083.76 129.5,-2089.76 129.5,-2089.76 129.5,-2113.76 129.5,-2113.76 129.5,-2119.76 123.5,-2125.76 117.5,-2125.76"/>
<text text-anchor="middle" x="73" y="-2105.56" font-family="Arial" font-size="14.00" fill="#000000">Album Type</text>
<text text-anchor="middle" x="73" y="-2090.56" font-family="Arial" font-size="14.00" fill="#000000">(one&#45;hot)</text>
</g>
<!-- train_set&#45;&gt;album_type_block -->
<g id="edge25" class="edge"><title>train_set&#45;&gt;album_type_block</title>
<path fill="none" stroke="#2e7d32" stroke-width="1.2" d="M576.275,-2223.57C444.411,-2203.06 166,-2159.76 166,-2159.76 166,-2159.76 141.455,-2144.72 117.584,-2130.09"/>
<polygon fill="#2e7d32" stroke="#2e7d32" stroke-width="1.2" points="118.843,-2127.58 110.559,-2125.78 115.916,-2132.35 118.843,-2127.58"/>
</g>
<!-- artist_history_block -->
<g id="node14" class="node"><title>artist_history_block</title>
<path fill="#ffffff" stroke="#333333" stroke-width="1.2" d="M1040,-2125.76C1040,-2125.76 948,-2125.76 948,-2125.76 942,-2125.76 936,-2119.76 936,-2113.76 936,-2113.76 936,-2089.76 936,-2089.76 936,-2083.76 942,-2077.76 948,-2077.76 948,-2077.76 1040,-2077.76 1040,-2077.76 1046,-2077.76 1052,-2083.76 1052,-2089.76 1052,-2089.76 1052,-2113.76 1052,-2113.76 1052,-2119.76 1046,-2125.76 1040,-2125.76"/>
<text text-anchor="middle" x="994" y="-2105.56" font-family="Arial" font-size="14.00" fill="#000000">Artist History</text>
<text text-anchor="middle" x="994" y="-2090.56" font-family="Arial" font-size="14.00" fill="#000000">(LOO stats)</text>
</g>
<!-- train_set&#45;&gt;artist_history_block -->
<g id="edge26" class="edge"><title>train_set&#45;&gt;artist_history_block</title>
<path fill="none" stroke="#2e7d32" stroke-width="1.2" d="M698.391,-2218.24C773.282,-2196.41 899,-2159.76 899,-2159.76 899,-2159.76 924.289,-2144.59 948.771,-2129.9"/>
<polygon fill="#2e7d32" stroke="#2e7d32" stroke-width="1.2" points="950.214,-2132.3 955.634,-2125.78 947.333,-2127.5 950.214,-2132.3"/>
</g>
<!-- artist_rep_block -->
<g id="node15" class="node"><title>artist_rep_block</title>
<path fill="#ffffff" stroke="#333333" stroke-width="1.2" d="M851.5,-2125.76C851.5,-2125.76 766.5,-2125.76 766.5,-2125.76 760.5,-2125.76 754.5,-2119.76 754.5,-2113.76 754.5,-2113.76 754.5,-2089.76 754.5,-2089.76 754.5,-2083.76 760.5,-2077.76 766.5,-2077.76 766.5,-2077.76 851.5,-2077.76 851.5,-2077.76 857.5,-2077.76 863.5,-2083.76 863.5,-2089.76 863.5,-2089.76 863.5,-2113.76 863.5,-2113.76 863.5,-2119.76 857.5,-2125.76 851.5,-2125.76"/>
<text text-anchor="middle" x="809" y="-2105.56" font-family="Arial" font-size="14.00" fill="#000000">Artist Rep</text>
<text text-anchor="middle" x="809" y="-2090.56" font-family="Arial" font-size="14.00" fill="#000000">(smoothed)</text>
</g>
<!-- train_set&#45;&gt;artist_rep_block -->
<g id="edge27" class="edge"><title>train_set&#45;&gt;artist_rep_block</title>
<path fill="none" stroke="#2e7d32" stroke-width="1.2" d="M670.51,-2213C698.491,-2190.73 742.741,-2155.5 773.67,-2130.89"/>
<polygon fill="#2e7d32" stroke="#2e7d32" stroke-width="1.2" points="775.542,-2132.98 780.057,-2125.8 772.054,-2128.59 775.542,-2132.98"/>
</g>
<!-- genre_block -->
<g id="node16" class="node"><title>genre_block</title>
<path fill="#ffffff" stroke="#333333" stroke-width="1.2" d="M670,-2125.76C670,-2125.76 618,-2125.76 618,-2125.76 612,-2125.76 606,-2119.76 606,-2113.76 606,-2113.76 606,-2089.76 606,-2089.76 606,-2083.76 612,-2077.76 618,-2077.76 618,-2077.76 670,-2077.76 670,-2077.76 676,-2077.76 682,-2083.76 682,-2089.76 682,-2089.76 682,-2113.76 682,-2113.76 682,-2119.76 676,-2125.76 670,-2125.76"/>
<text text-anchor="middle" x="644" y="-2105.56" font-family="Arial" font-size="14.00" fill="#000000">Genre</text>
<text text-anchor="middle" x="644" y="-2090.56" font-family="Arial" font-size="14.00" fill="#000000">(PCA)</text>
</g>
<!-- train_set&#45;&gt;genre_block -->
<g id="edge28" class="edge"><title>train_set&#45;&gt;genre_block</title>
<path fill="none" stroke="#2e7d32" stroke-width="1.2" d="M644,-2211.52C644,-2190.13 644,-2157.83 644,-2133.98"/>
<polygon fill="#2e7d32" stroke="#2e7d32" stroke-width="1.2" points="646.8,-2133.93 644,-2125.93 641.2,-2133.93 646.8,-2133.93"/>
</g>
<!-- collab_block -->
<g id="node17" class="node"><title>collab_block</title>
<path fill="#ffffff" stroke="#333333" stroke-width="1.2" d="M522,-2125.76C522,-2125.76 426,-2125.76 426,-2125.76 420,-2125.76 414,-2119.76 414,-2113.76 414,-2113.76 414,-2089.76 414,-2089.76 414,-2083.76 420,-2077.76 426,-2077.76 426,-2077.76 522,-2077.76 522,-2077.76 528,-2077.76 534,-2083.76 534,-2089.76 534,-2089.76 534,-2113.76 534,-2113.76 534,-2119.76 528,-2125.76 522,-2125.76"/>
<text text-anchor="middle" x="474" y="-2105.56" font-family="Arial" font-size="14.00" fill="#000000">Collaboration</text>
<text text-anchor="middle" x="474" y="-2090.56" font-family="Arial" font-size="14.00" fill="#000000">(ordinal)</text>
</g>
<!-- train_set&#45;&gt;collab_block -->
<g id="edge29" class="edge"><title>train_set&#45;&gt;collab_block</title>
<path fill="none" stroke="#2e7d32" stroke-width="1.2" d="M616.687,-2213C587.858,-2190.73 542.267,-2155.5 510.401,-2130.89"/>
<polygon fill="#2e7d32" stroke="#2e7d32" stroke-width="1.2" points="511.863,-2128.48 503.82,-2125.8 508.439,-2132.91 511.863,-2128.48"/>
</g>
<!-- predictions -->
<g id="node33" class="node"><title>predictions</title>
<ellipse fill="#d4e8d4" stroke="#333333" stroke-width="1.2" cx="1061" cy="-49.9411" rx="76.2353" ry="33.8824"/>
<text text-anchor="middle" x="1061" y="-53.7411" font-family="Arial" font-size="14.00" fill="#000000">Predictions</text>
<text text-anchor="middle" x="1061" y="-38.7411" font-family="Arial" font-size="14.00" fill="#000000">(95% CI)</text>
</g>
<!-- test_set&#45;&gt;predictions -->
<g id="edge43" class="edge"><title>test_set&#45;&gt;predictions</title>
<path fill="none" stroke="#666666" stroke-width="1.2" stroke-dasharray="5,2" d="M1088.87,-2211.54C1108.09,-2148.44 1161,-1974.76 1161,-1974.76 1161,-1974.76 1161,-1974.76 1161,-320.882 1161,-320.882 1103.9,-166.736 1075.99,-91.4111"/>
<polygon fill="#666666" stroke="#666666" stroke-width="1.2" points="1078.47,-90.0314 1073.06,-83.5023 1073.22,-91.9768 1078.47,-90.0314"/>
</g>
<!-- feature_pipeline -->
<g id="node18" class="node"><title>feature_pipeline</title>
<path fill="#e8e4d4" stroke="#333333" stroke-width="1.2" d="M699,-1991.76C699,-1991.76 583,-1991.76 583,-1991.76 577,-1991.76 571,-1985.76 571,-1979.76 571,-1979.76 571,-1967.76 571,-1967.76 571,-1961.76 577,-1955.76 583,-1955.76 583,-1955.76 699,-1955.76 699,-1955.76 705,-1955.76 711,-1961.76 711,-1967.76 711,-1967.76 711,-1979.76 711,-1979.76 711,-1985.76 705,-1991.76 699,-1991.76"/>
<text text-anchor="middle" x="641" y="-1970.06" font-family="Arial" font-size="14.00" fill="#000000">Feature Pipeline</text>
</g>
<!-- temporal_block&#45;&gt;feature_pipeline -->
<g id="edge30" class="edge"><title>temporal_block&#45;&gt;feature_pipeline</title>
<path fill="none" stroke="#333333" stroke-width="1.2" d="M339.68,-2077.65C409.557,-2053.79 517.412,-2016.97 583.355,-1994.45"/>
<polygon fill="#333333" stroke="#333333" stroke-width="1.2" points="584.518,-1997.01 591.184,-1991.77 582.708,-1991.71 584.518,-1997.01"/>
</g>
<!-- album_type_block&#45;&gt;feature_pipeline -->
<g id="edge31" class="edge"><title>album_type_block&#45;&gt;feature_pipeline</title>
<path fill="none" stroke="#333333" stroke-width="1.2" d="M129.511,-2086.79C148.985,-2081.97 166,-2077.76 166,-2077.76 166,-2077.76 428.231,-2020.9 563.012,-1991.68"/>
<polygon fill="#333333" stroke="#333333" stroke-width="1.2" points="563.687,-1994.39 570.912,-1989.96 562.5,-1988.92 563.687,-1994.39"/>
</g>
<!-- artist_history_block&#45;&gt;feature_pipeline -->
<g id="edge32" class="edge"><title>artist_history_block&#45;&gt;feature_pipeline</title>
<path fill="none" stroke="#333333" stroke-width="1.2" d="M935.709,-2079.96C869.378,-2056.28 761.822,-2017.89 696.621,-1994.62"/>
<polygon fill="#333333" stroke="#333333" stroke-width="1.2" points="697.361,-1991.91 688.885,-1991.86 695.479,-1997.18 697.361,-1991.91"/>
</g>
<!-- artist_rep_block&#45;&gt;feature_pipeline -->
<g id="edge33" class="edge"><title>artist_rep_block&#45;&gt;feature_pipeline</title>
<path fill="none" stroke="#333333" stroke-width="1.2" d="M778.186,-2077.65C747.451,-2054.6 700.578,-2019.45 670.363,-1996.79"/>
<polygon fill="#333333" stroke="#333333" stroke-width="1.2" points="671.887,-1994.43 663.807,-1991.87 668.527,-1998.91 671.887,-1994.43"/>
</g>
<!-- genre_block&#45;&gt;feature_pipeline -->
<g id="edge34" class="edge"><title>genre_block&#45;&gt;feature_pipeline</title>
<path fill="none" stroke="#333333" stroke-width="1.2" d="M643.45,-2077.65C642.928,-2055.73 642.145,-2022.86 641.606,-2000.2"/>
<polygon fill="#333333" stroke="#333333" stroke-width="1.2" points="644.402,-1999.99 641.412,-1992.06 638.803,-2000.13 644.402,-1999.99"/>
</g>
<!-- collab_block&#45;&gt;feature_pipeline -->
<g id="edge35" class="edge"><title>collab_block&#45;&gt;feature_pipeline</title>
<path fill="none" stroke="#333333" stroke-width="1.2" d="M504.63,-2077.65C535.183,-2054.6 581.777,-2019.45 611.812,-1996.79"/>
<polygon fill="#333333" stroke="#333333" stroke-width="1.2" points="613.629,-1998.92 618.328,-1991.87 610.256,-1994.45 613.629,-1998.92"/>
</g>
<!-- prior_config -->
<g id="node19" class="node"><title>prior_config</title>
<path fill="#ffffff" stroke="#333333" stroke-width="1.2" d="M685,-1869.76C685,-1869.76 597,-1869.76 597,-1869.76 591,-1869.76 585,-1863.76 585,-1857.76 585,-1857.76 585,-1833.76 585,-1833.76 585,-1827.76 591,-1821.76 597,-1821.76 597,-1821.76 685,-1821.76 685,-1821.76 691,-1821.76 697,-1827.76 697,-1833.76 697,-1833.76 697,-1857.76 697,-1857.76 697,-1863.76 691,-1869.76 685,-1869.76"/>
<text text-anchor="middle" x="641" y="-1849.56" font-family="Arial" font-size="14.00" fill="#000000">Prior Config</text>
<text text-anchor="middle" x="641" y="-1834.56" font-family="Arial" font-size="14.00" fill="#000000">(9 params)</text>
</g>
<!-- feature_pipeline&#45;&gt;prior_config -->
<g id="edge36" class="edge"><title>feature_pipeline&#45;&gt;prior_config</title>
<path fill="none" stroke="#333333" stroke-width="1.2" d="M641,-1955.51C641,-1935.61 641,-1902.51 641,-1878.04"/>
<polygon fill="#333333" stroke="#333333" stroke-width="1.2" points="643.8,-1877.79 641,-1869.79 638.2,-1877.79 643.8,-1877.79"/>
</g>
<!-- hierarchical -->
<g id="node20" class="node"><title>hierarchical</title>
<path fill="#ffffff" stroke="#333333" stroke-width="1.2" d="M691,-1735.76C691,-1735.76 591,-1735.76 591,-1735.76 585,-1735.76 579,-1729.76 579,-1723.76 579,-1723.76 579,-1699.76 579,-1699.76 579,-1693.76 585,-1687.76 591,-1687.76 591,-1687.76 691,-1687.76 691,-1687.76 697,-1687.76 703,-1693.76 703,-1699.76 703,-1699.76 703,-1723.76 703,-1723.76 703,-1729.76 697,-1735.76 691,-1735.76"/>
<text text-anchor="middle" x="641" y="-1715.56" font-family="Arial" font-size="14.00" fill="#000000">Hierarchical</text>
<text text-anchor="middle" x="641" y="-1700.56" font-family="Arial" font-size="14.00" fill="#000000">(artist effects)</text>
</g>
<!-- prior_config&#45;&gt;hierarchical -->
<g id="edge5" class="edge"><title>prior_config&#45;&gt;hierarchical</title>
<path fill="none" stroke="#333333" stroke-width="1.2" d="M641,-1821.47C641,-1799.89 641,-1767.62 641,-1743.85"/>
<polygon fill="#333333" stroke="#333333" stroke-width="1.2" points="643.8,-1743.83 641,-1735.83 638.2,-1743.83 643.8,-1743.83"/>
</g>
<!-- non_centered -->
<g id="node21" class="node"><title>non_centered</title>
<path fill="#ffffff" stroke="#333333" stroke-width="1.2" d="M690.5,-1601.76C690.5,-1601.76 591.5,-1601.76 591.5,-1601.76 585.5,-1601.76 579.5,-1595.76 579.5,-1589.76 579.5,-1589.76 579.5,-1565.76 579.5,-1565.76 579.5,-1559.76 585.5,-1553.76 591.5,-1553.76 591.5,-1553.76 690.5,-1553.76 690.5,-1553.76 696.5,-1553.76 702.5,-1559.76 702.5,-1565.76 702.5,-1565.76 702.5,-1589.76 702.5,-1589.76 702.5,-1595.76 696.5,-1601.76 690.5,-1601.76"/>
<text text-anchor="middle" x="641" y="-1581.56" font-family="Arial" font-size="14.00" fill="#000000">Non&#45;centered</text>
<text text-anchor="middle" x="641" y="-1566.56" font-family="Arial" font-size="14.00" fill="#000000">Param</text>
</g>
<!-- hierarchical&#45;&gt;non_centered -->
<g id="edge6" class="edge"><title>hierarchical&#45;&gt;non_centered</title>
<path fill="none" stroke="#333333" stroke-width="1.2" d="M641,-1687.47C641,-1665.89 641,-1633.62 641,-1609.85"/>
<polygon fill="#333333" stroke="#333333" stroke-width="1.2" points="643.8,-1609.83 641,-1601.83 638.2,-1609.83 643.8,-1609.83"/>
</g>
<!-- time_varying -->
<g id="node22" class="node"><title>time_varying</title>
<path fill="#ffffff" stroke="#333333" stroke-width="1.2" d="M691,-1467.76C691,-1467.76 591,-1467.76 591,-1467.76 585,-1467.76 579,-1461.76 579,-1455.76 579,-1455.76 579,-1431.76 579,-1431.76 579,-1425.76 585,-1419.76 591,-1419.76 591,-1419.76 691,-1419.76 691,-1419.76 697,-1419.76 703,-1425.76 703,-1431.76 703,-1431.76 703,-1455.76 703,-1455.76 703,-1461.76 697,-1467.76 691,-1467.76"/>
<text text-anchor="middle" x="641" y="-1447.56" font-family="Arial" font-size="14.00" fill="#000000">Time&#45;varying</text>
<text text-anchor="middle" x="641" y="-1432.56" font-family="Arial" font-size="14.00" fill="#000000">(random walk)</text>
</g>
<!-- non_centered&#45;&gt;time_varying -->
<g id="edge7" class="edge"><title>non_centered&#45;&gt;time_varying</title>
<path fill="none" stroke="#333333" stroke-width="1.2" d="M641,-1553.47C641,-1531.89 641,-1499.62 641,-1475.85"/>
<polygon fill="#333333" stroke="#333333" stroke-width="1.2" points="643.8,-1475.83 641,-1467.83 638.2,-1475.83 643.8,-1475.83"/>
</g>
<!-- ar1_structure -->
<g id="node23" class="node"><title>ar1_structure</title>
<path fill="#ffffff" stroke="#333333" stroke-width="1.2" d="M676,-1333.76C676,-1333.76 606,-1333.76 606,-1333.76 600,-1333.76 594,-1327.76 594,-1321.76 594,-1321.76 594,-1297.76 594,-1297.76 594,-1291.76 600,-1285.76 606,-1285.76 606,-1285.76 676,-1285.76 676,-1285.76 682,-1285.76 688,-1291.76 688,-1297.76 688,-1297.76 688,-1321.76 688,-1321.76 688,-1327.76 682,-1333.76 676,-1333.76"/>
<text text-anchor="middle" x="641" y="-1313.56" font-family="Arial" font-size="14.00" fill="#000000">AR(1)</text>
<text text-anchor="middle" x="641" y="-1298.56" font-family="Arial" font-size="14.00" fill="#000000">Structure</text>
</g>
<!-- time_varying&#45;&gt;ar1_structure -->
<g id="edge8" class="edge"><title>time_varying&#45;&gt;ar1_structure</title>
<path fill="none" stroke="#333333" stroke-width="1.2" d="M641,-1419.47C641,-1397.89 641,-1365.62 641,-1341.85"/>
<polygon fill="#333333" stroke="#333333" stroke-width="1.2" points="643.8,-1341.83 641,-1333.83 638.2,-1341.83 643.8,-1341.83"/>
</g>
<!-- mcmc_sampling -->
<g id="node24" class="node"><title>mcmc_sampling</title>
<path fill="#b8d4e8" stroke="#333333" stroke-width="2" d="M688,-1199.76C688,-1199.76 594,-1199.76 594,-1199.76 588,-1199.76 582,-1193.76 582,-1187.76 582,-1187.76 582,-1163.76 582,-1163.76 582,-1157.76 588,-1151.76 594,-1151.76 594,-1151.76 688,-1151.76 688,-1151.76 694,-1151.76 700,-1157.76 700,-1163.76 700,-1163.76 700,-1187.76 700,-1187.76 700,-1193.76 694,-1199.76 688,-1199.76"/>
<text text-anchor="middle" x="641" y="-1179.56" font-family="Arial" font-size="14.00" fill="#000000">MCMC</text>
<text text-anchor="middle" x="641" y="-1164.56" font-family="Arial" font-size="14.00" fill="#000000">(NUTS/GPU)</text>
</g>
<!-- ar1_structure&#45;&gt;mcmc_sampling -->
<g id="edge9" class="edge"><title>ar1_structure&#45;&gt;mcmc_sampling</title>
<path fill="none" stroke="#333333" stroke-width="1.2" d="M641,-1285.47C641,-1263.89 641,-1231.62 641,-1207.85"/>
<polygon fill="#333333" stroke="#333333" stroke-width="1.2" points="643.8,-1207.83 641,-1199.83 638.2,-1207.83 643.8,-1207.83"/>
</g>
<!-- posterior -->
<g id="node25" class="node"><title>posterior</title>
<ellipse fill="#d4e8d4" stroke="#333333" stroke-width="1.2" cx="641" cy="-1031.82" rx="85.6199" ry="33.8824"/>
<text text-anchor="middle" x="641" y="-1035.62" font-family="Arial" font-size="14.00" fill="#000000">Posterior</text>
<text text-anchor="middle" x="641" y="-1020.62" font-family="Arial" font-size="14.00" fill="#000000">(4K samples)</text>
</g>
<!-- mcmc_sampling&#45;&gt;posterior -->
<g id="edge10" class="edge"><title>mcmc_sampling&#45;&gt;posterior</title>
<path fill="none" stroke="#333333" stroke-width="1.2" d="M641,-1151.64C641,-1130.75 641,-1099.51 641,-1074.3"/>
<polygon fill="#333333" stroke="#333333" stroke-width="1.2" points="643.8,-1074.01 641,-1066.01 638.2,-1074.01 643.8,-1074.01"/>
</g>
<!-- convergence -->
<g id="node26" class="node"><title>convergence</title>
<path fill="#ffe4b5" stroke="#333333" stroke-width="1.2" d="M626.416,-908.749C626.416,-908.749 527.584,-882.016 527.584,-882.016 521.792,-880.449 521.792,-877.316 527.584,-875.749 527.584,-875.749 626.416,-849.016 626.416,-849.016 632.208,-847.449 643.792,-847.449 649.584,-849.016 649.584,-849.016 748.416,-875.749 748.416,-875.749 754.208,-877.316 754.208,-880.449 748.416,-882.016 748.416,-882.016 649.584,-908.749 649.584,-908.749 643.792,-910.316 632.208,-910.316 626.416,-908.749"/>
<text text-anchor="middle" x="638" y="-875.182" font-family="Arial" font-size="14.00" fill="#000000">Convergence</text>
</g>
<!-- posterior&#45;&gt;convergence -->
<g id="edge37" class="edge"><title>posterior&#45;&gt;convergence</title>
<path fill="none" stroke="#333333" stroke-width="1.2" d="M640.342,-997.699C639.888,-974.876 639.283,-944.414 638.801,-920.183"/>
<polygon fill="#333333" stroke="#333333" stroke-width="1.2" points="641.595,-919.837 638.636,-911.894 635.996,-919.949 641.595,-919.837"/>
</g>
<!-- model_artifacts -->
<g id="node34" class="node"><title>model_artifacts</title>
<path fill="#ffffff" stroke="#333333" stroke-width="1.2" d="M901,-73.9411C901,-73.9411 837,-73.9411 837,-73.9411 831,-73.9411 825,-67.9411 825,-61.9411 825,-61.9411 825,-37.9411 825,-37.9411 825,-31.9411 831,-25.9411 837,-25.9411 837,-25.9411 901,-25.9411 901,-25.9411 907,-25.9411 913,-31.9411 913,-37.9411 913,-37.9411 913,-61.9411 913,-61.9411 913,-67.9411 907,-73.9411 901,-73.9411"/>
<text text-anchor="middle" x="869" y="-53.7411" font-family="Arial" font-size="14.00" fill="#000000">Model</text>
<text text-anchor="middle" x="869" y="-38.7411" font-family="Arial" font-size="14.00" fill="#000000">Artifacts</text>
</g>
<!-- posterior&#45;&gt;model_artifacts -->
<g id="edge39" class="edge"><title>posterior&#45;&gt;model_artifacts</title>
<path fill="none" stroke="#666666" stroke-width="1.2" stroke-dasharray="5,2" d="M688.077,-1003.25C730.416,-978.443 786,-945.882 786,-945.882 786,-945.882 869,-736.882 869,-736.882 869,-736.882 869,-736.882 869,-320.882 869,-320.882 869,-153.149 869,-82.121"/>
<polygon fill="#666666" stroke="#666666" stroke-width="1.2" points="871.8,-81.9561 869,-73.9562 866.2,-81.9562 871.8,-81.9561"/>
</g>
<!-- convergence&#45;&gt;mcmc_sampling -->
<g id="edge41" class="edge"><title>convergence&#45;&gt;mcmc_sampling</title>
<path fill="none" stroke="#666666" stroke-width="1.2" stroke-dasharray="5,2" d="M666.052,-904.568C702.907,-937 763,-989.882 763,-989.882 763,-989.882 763,-1065.76 763,-1065.76 763,-1065.76 709.102,-1113.92 672.954,-1146.22"/>
<polygon fill="#666666" stroke="#666666" stroke-width="1.2" points="670.973,-1144.23 666.873,-1151.65 674.704,-1148.41 670.973,-1144.23"/>
<text text-anchor="middle" x="755" y="-1026.03" font-family="Arial" font-size="7.00" fill="#000000">retry</text>
</g>
<!-- rhat_check -->
<g id="node27" class="node"><title>rhat_check</title>
<path fill="#ffffff" stroke="#333333" stroke-width="1.2" d="M591,-759.882C591,-759.882 533,-759.882 533,-759.882 527,-759.882 521,-753.882 521,-747.882 521,-747.882 521,-723.882 521,-723.882 521,-717.882 527,-711.882 533,-711.882 533,-711.882 591,-711.882 591,-711.882 597,-711.882 603,-717.882 603,-723.882 603,-723.882 603,-747.882 603,-747.882 603,-753.882 597,-759.882 591,-759.882"/>
<text text-anchor="middle" x="562" y="-739.682" font-family="Arial" font-size="14.00" fill="#000000">R&#45;hat</text>
<text text-anchor="middle" x="562" y="-724.682" font-family="Arial" font-size="14.00" fill="#000000">(&lt;1.01)</text>
</g>
<!-- convergence&#45;&gt;rhat_check -->
<g id="edge11" class="edge"><title>convergence&#45;&gt;rhat_check</title>
<path fill="none" stroke="#333333" stroke-width="1.2" d="M622.803,-849.688C609.927,-825.799 591.507,-791.626 578.321,-767.163"/>
<polygon fill="#333333" stroke="#333333" stroke-width="1.2" points="580.67,-765.618 574.409,-759.904 575.74,-768.275 580.67,-765.618"/>
</g>
<!-- ess_check -->
<g id="node28" class="node"><title>ess_check</title>
<path fill="#ffffff" stroke="#333333" stroke-width="1.2" d="M742.5,-759.882C742.5,-759.882 687.5,-759.882 687.5,-759.882 681.5,-759.882 675.5,-753.882 675.5,-747.882 675.5,-747.882 675.5,-723.882 675.5,-723.882 675.5,-717.882 681.5,-711.882 687.5,-711.882 687.5,-711.882 742.5,-711.882 742.5,-711.882 748.5,-711.882 754.5,-717.882 754.5,-723.882 754.5,-723.882 754.5,-747.882 754.5,-747.882 754.5,-753.882 748.5,-759.882 742.5,-759.882"/>
<text text-anchor="middle" x="715" y="-739.682" font-family="Arial" font-size="14.00" fill="#000000">ESS</text>
<text text-anchor="middle" x="715" y="-724.682" font-family="Arial" font-size="14.00" fill="#000000">(&gt;400)</text>
</g>
<!-- convergence&#45;&gt;ess_check -->
<g id="edge12" class="edge"><title>convergence&#45;&gt;ess_check</title>
<path fill="none" stroke="#333333" stroke-width="1.2" d="M653.397,-849.688C666.443,-825.799 685.104,-791.626 698.464,-767.163"/>
<polygon fill="#333333" stroke="#333333" stroke-width="1.2" points="701.051,-768.268 702.428,-759.904 696.136,-765.583 701.051,-768.268"/>
</g>
<!-- loo_cv -->
<g id="node29" class="node"><title>loo_cv</title>
<path fill="#ffffff" stroke="#333333" stroke-width="1.2" d="M704,-625.882C704,-625.882 636,-625.882 636,-625.882 630,-625.882 624,-619.882 624,-613.882 624,-613.882 624,-589.882 624,-589.882 624,-583.882 630,-577.882 636,-577.882 636,-577.882 704,-577.882 704,-577.882 710,-577.882 716,-583.882 716,-589.882 716,-589.882 716,-613.882 716,-613.882 716,-619.882 710,-625.882 704,-625.882"/>
<text text-anchor="middle" x="670" y="-605.682" font-family="Arial" font-size="14.00" fill="#000000">LOO&#45;CV</text>
<text text-anchor="middle" x="670" y="-590.682" font-family="Arial" font-size="14.00" fill="#000000">(PSIS)</text>
</g>
<!-- rhat_check&#45;&gt;loo_cv -->
<g id="edge13" class="edge"><title>rhat_check&#45;&gt;loo_cv</title>
<path fill="none" stroke="#333333" stroke-width="1.2" d="M581.06,-711.587C599.104,-689.532 626.271,-656.328 645.83,-632.423"/>
<polygon fill="#333333" stroke="#333333" stroke-width="1.2" points="648.232,-633.909 651.131,-625.944 643.898,-630.363 648.232,-633.909"/>
</g>
<!-- ess_check&#45;&gt;loo_cv -->
<g id="edge14" class="edge"><title>ess_check&#45;&gt;loo_cv</title>
<path fill="none" stroke="#333333" stroke-width="1.2" d="M707.058,-711.587C699.668,-689.909 688.606,-657.46 680.491,-633.657"/>
<polygon fill="#333333" stroke="#333333" stroke-width="1.2" points="683.094,-632.613 677.862,-625.944 677.793,-634.42 683.094,-632.613"/>
</g>
<!-- pareto_k -->
<g id="node30" class="node"><title>pareto_k</title>
<path fill="#ffe4b5" stroke="#333333" stroke-width="1.2" d="M658.733,-487.751C658.733,-487.751 591.267,-463.013 591.267,-463.013 585.633,-460.948 585.633,-456.817 591.267,-454.751 591.267,-454.751 658.733,-430.013 658.733,-430.013 664.367,-427.948 675.633,-427.948 681.267,-430.013 681.267,-430.013 748.733,-454.751 748.733,-454.751 754.367,-456.817 754.367,-460.948 748.733,-463.013 748.733,-463.013 681.267,-487.751 681.267,-487.751 675.633,-489.817 664.367,-489.817 658.733,-487.751"/>
<text text-anchor="middle" x="670" y="-455.182" font-family="Arial" font-size="14.00" fill="#000000">Pareto&#45;k</text>
</g>
<!-- loo_cv&#45;&gt;pareto_k -->
<g id="edge15" class="edge"><title>loo_cv&#45;&gt;pareto_k</title>
<path fill="none" stroke="#333333" stroke-width="1.2" d="M670,-577.599C670,-556.587 670,-525.218 670,-500.145"/>
<polygon fill="#333333" stroke="#333333" stroke-width="1.2" points="672.8,-499.908 670,-491.908 667.2,-499.908 672.8,-499.908"/>
</g>
<!-- calibration -->
<g id="node31" class="node"><title>calibration</title>
<path fill="#ffffff" stroke="#333333" stroke-width="1.2" d="M724.5,-339.882C724.5,-339.882 645.5,-339.882 645.5,-339.882 639.5,-339.882 633.5,-333.882 633.5,-327.882 633.5,-327.882 633.5,-315.882 633.5,-315.882 633.5,-309.882 639.5,-303.882 645.5,-303.882 645.5,-303.882 724.5,-303.882 724.5,-303.882 730.5,-303.882 736.5,-309.882 736.5,-315.882 736.5,-315.882 736.5,-327.882 736.5,-327.882 736.5,-333.882 730.5,-339.882 724.5,-339.882"/>
<text text-anchor="middle" x="685" y="-318.182" font-family="Arial" font-size="14.00" fill="#000000">Calibration</text>
</g>
<!-- pareto_k&#45;&gt;calibration -->
<g id="edge16" class="edge"><title>pareto_k&#45;&gt;calibration</title>
<path fill="none" stroke="#333333" stroke-width="1.2" d="M673.441,-426.911C676.095,-403.027 679.719,-370.413 682.197,-348.108"/>
<polygon fill="#333333" stroke="#333333" stroke-width="1.2" points="684.986,-348.364 683.087,-340.103 679.42,-347.745 684.986,-348.364"/>
</g>
<!-- sensitivity -->
<g id="node32" class="node"><title>sensitivity</title>
<path fill="#ffffff" stroke="#333333" stroke-width="1.2" d="M738,-217.882C738,-217.882 662,-217.882 662,-217.882 656,-217.882 650,-211.882 650,-205.882 650,-205.882 650,-181.882 650,-181.882 650,-175.882 656,-169.882 662,-169.882 662,-169.882 738,-169.882 738,-169.882 744,-169.882 750,-175.882 750,-181.882 750,-181.882 750,-205.882 750,-205.882 750,-211.882 744,-217.882 738,-217.882"/>
<text text-anchor="middle" x="700" y="-197.682" font-family="Arial" font-size="14.00" fill="#000000">Sensitivity</text>
<text text-anchor="middle" x="700" y="-182.682" font-family="Arial" font-size="14.00" fill="#000000">Analysis</text>
</g>
<!-- calibration&#45;&gt;sensitivity -->
<g id="edge17" class="edge"><title>calibration&#45;&gt;sensitivity</title>
<path fill="none" stroke="#333333" stroke-width="1.2" d="M687.054,-303.627C689.423,-283.731 693.363,-250.629 696.276,-226.163"/>
<polygon fill="#333333" stroke="#333333" stroke-width="1.2" points="699.094,-226.179 697.259,-217.904 693.533,-225.517 699.094,-226.179"/>
</g>
<!-- sensitivity&#45;&gt;prior_config -->
<g id="edge42" class="edge"><title>sensitivity&#45;&gt;prior_config</title>
<path fill="none" stroke="#666666" stroke-width="1.2" stroke-dasharray="5,2" d="M727.678,-217.991C804.544,-282.168 1015,-457.882 1015,-457.882 1015,-736.882 1015,-736.882 1015,-736.882 1015,-736.882 739,-1735.76 739,-1735.76 739,-1735.76 696.417,-1783.13 667.391,-1815.41"/>
<polygon fill="#666666" stroke="#666666" stroke-width="1.2" points="665.05,-1813.83 661.783,-1821.65 669.214,-1817.57 665.05,-1813.83"/>
<text text-anchor="middle" x="942.734" y="-975.489" font-family="Arial" font-size="7.00" fill="#000000">tune</text>
</g>
<!-- sensitivity&#45;&gt;predictions -->
<g id="edge38" class="edge"><title>sensitivity&#45;&gt;predictions</title>
<path fill="none" stroke="#333333" stroke-width="1.2" d="M750.089,-177.795C822.801,-155.894 949,-117.882 949,-117.882 949,-117.882 980.009,-99.3488 1009.39,-81.7857"/>
<polygon fill="#333333" stroke="#333333" stroke-width="1.2" points="1010.98,-84.0981 1016.41,-77.5904 1008.11,-79.2913 1010.98,-84.0981"/>
</g>
<!-- publication -->
<g id="node35" class="node"><title>publication</title>
<path fill="#ffffff" stroke="#333333" stroke-width="1.2" d="M741,-73.9411C741,-73.9411 659,-73.9411 659,-73.9411 653,-73.9411 647,-67.9411 647,-61.9411 647,-61.9411 647,-37.9411 647,-37.9411 647,-31.9411 653,-25.9411 659,-25.9411 659,-25.9411 741,-25.9411 741,-25.9411 747,-25.9411 753,-31.9411 753,-37.9411 753,-37.9411 753,-61.9411 753,-61.9411 753,-67.9411 747,-73.9411 741,-73.9411"/>
<text text-anchor="middle" x="700" y="-53.7411" font-family="Arial" font-size="14.00" fill="#000000">Publication</text>
<text text-anchor="middle" x="700" y="-38.7411" font-family="Arial" font-size="14.00" fill="#000000">Figures</text>
</g>
<!-- sensitivity&#45;&gt;publication -->
<g id="edge40" class="edge"><title>sensitivity&#45;&gt;publication</title>
<path fill="none" stroke="#333333" stroke-width="1.2" d="M700,-169.761C700,-145.944 700,-108.669 700,-82.2263"/>
<polygon fill="#333333" stroke="#333333" stroke-width="1.2" points="702.8,-82.0524 700,-74.0524 697.2,-82.0525 702.8,-82.0524"/>
</g>
</g>
</svg>
